<svg width="762" height="296" viewBox="0 0 762 296" fill="none" xmlns="http://www.w3.org/2000/svg">
<path d="M26.6 238V102.6H2.2V76H86.8V102.6H62.6V238H26.6Z" fill="#005CE7"/>
<path d="M104.743 238V134.32H151.335V149.936H127.655V175.664H145.703V191.536H127.655V222.512H151.591V238H104.743ZM196.808 239.536C188.958 239.536 182.728 238.128 178.12 235.312C173.598 232.411 170.398 228.4 168.52 223.28C166.643 218.075 165.704 211.973 165.704 204.976V167.6C165.704 160.432 166.643 154.288 168.52 149.168C170.398 143.963 173.598 139.952 178.12 137.136C182.728 134.32 188.958 132.912 196.808 132.912C204.488 132.912 210.462 134.192 214.728 136.752C219.08 139.227 222.152 142.725 223.944 147.248C225.736 151.771 226.632 156.976 226.632 162.864V171.824H204.232V161.456C204.232 159.408 204.104 157.445 203.848 155.568C203.678 153.691 203.08 152.155 202.056 150.96C201.032 149.68 199.283 149.04 196.808 149.04C194.419 149.04 192.627 149.68 191.432 150.96C190.323 152.24 189.598 153.861 189.256 155.824C189 157.701 188.872 159.707 188.872 161.84V210.608C188.872 212.912 189.043 215.045 189.384 217.008C189.811 218.885 190.579 220.421 191.688 221.616C192.883 222.725 194.59 223.28 196.808 223.28C199.198 223.28 200.904 222.683 201.928 221.488C202.952 220.208 203.592 218.587 203.848 216.624C204.104 214.661 204.232 212.656 204.232 210.608V199.728H226.632V208.688C226.632 214.576 225.736 219.867 223.944 224.56C222.238 229.168 219.208 232.837 214.856 235.568C210.59 238.213 204.574 239.536 196.808 239.536ZM244.742 238V134.32H267.654V176.304H283.654V134.32H306.694V238H283.654V192.688H267.654V238H244.742ZM452.273 239.536C444.337 239.536 438.108 238.256 433.585 235.696C429.148 233.051 426.033 229.253 424.241 224.304C422.449 219.269 421.553 213.125 421.553 205.872V134.32H444.209V209.328C444.209 211.461 444.38 213.595 444.721 215.728C445.063 217.861 445.788 219.611 446.897 220.976C448.092 222.341 449.884 223.024 452.273 223.024C454.748 223.024 456.54 222.341 457.649 220.976C458.759 219.611 459.441 217.861 459.697 215.728C460.039 213.595 460.209 211.461 460.209 209.328V134.32H482.993V205.872C482.993 213.125 482.055 219.269 480.177 224.304C478.385 229.253 475.271 233.051 470.833 235.696C466.396 238.256 460.209 239.536 452.273 239.536ZM530.211 239.536C523.726 239.536 518.307 238.384 513.955 236.08C509.603 233.776 506.318 230.235 504.099 225.456C501.881 220.592 500.643 214.32 500.387 206.64L519.971 203.696C520.057 208.133 520.441 211.717 521.123 214.448C521.891 217.179 522.915 219.141 524.195 220.336C525.561 221.531 527.182 222.128 529.059 222.128C531.449 222.128 532.985 221.317 533.667 219.696C534.435 218.075 534.819 216.368 534.819 214.576C534.819 210.309 533.795 206.725 531.747 203.824C529.699 200.837 526.926 197.851 523.427 194.864L514.467 187.056C510.542 183.728 507.214 179.973 504.483 175.792C501.838 171.525 500.515 166.277 500.515 160.048C500.515 151.259 503.118 144.56 508.323 139.952C513.529 135.259 520.611 132.912 529.571 132.912C535.118 132.912 539.555 133.851 542.883 135.728C546.297 137.605 548.857 140.08 550.563 143.152C552.355 146.139 553.55 149.339 554.147 152.752C554.83 156.08 555.214 159.28 555.299 162.352L535.587 164.784C535.502 161.712 535.289 159.067 534.947 156.848C534.691 154.544 534.094 152.795 533.155 151.6C532.217 150.32 530.766 149.68 528.803 149.68C526.67 149.68 525.091 150.576 524.067 152.368C523.129 154.16 522.659 155.952 522.659 157.744C522.659 161.584 523.555 164.741 525.347 167.216C527.225 169.605 529.657 172.123 532.643 174.768L541.219 182.32C545.742 186.16 549.539 190.512 552.611 195.376C555.769 200.24 557.347 206.256 557.347 213.424C557.347 218.288 556.238 222.725 554.019 226.736C551.801 230.661 548.643 233.776 544.547 236.08C540.537 238.384 535.758 239.536 530.211 239.536ZM573.689 238V134.32H596.601V238H573.689ZM646.877 239.536C639.112 239.536 632.968 238.171 628.445 235.44C623.923 232.709 620.68 228.784 618.717 223.664C616.755 218.544 615.773 212.443 615.773 205.36V166.832C615.773 159.664 616.755 153.563 618.717 148.528C620.68 143.493 623.923 139.653 628.445 137.008C632.968 134.277 639.112 132.912 646.877 132.912C654.728 132.912 660.915 134.277 665.437 137.008C670.045 139.653 673.331 143.493 675.293 148.528C677.256 153.563 678.237 159.664 678.237 166.832V205.36C678.237 212.443 677.256 218.544 675.293 223.664C673.331 228.784 670.045 232.709 665.437 235.44C660.915 238.171 654.728 239.536 646.877 239.536ZM646.877 223.28C649.267 223.28 651.016 222.683 652.125 221.488C653.235 220.293 653.96 218.757 654.301 216.88C654.643 215.003 654.813 213.083 654.813 211.12V161.2C654.813 159.152 654.643 157.232 654.301 155.44C653.96 153.563 653.235 152.027 652.125 150.832C651.016 149.637 649.267 149.04 646.877 149.04C644.659 149.04 642.995 149.637 641.885 150.832C640.776 152.027 640.051 153.563 639.709 155.44C639.368 157.232 639.197 159.152 639.197 161.2V211.12C639.197 213.083 639.325 215.003 639.581 216.88C639.923 218.757 640.605 220.293 641.629 221.488C642.739 222.683 644.488 223.28 646.877 223.28ZM697.301 238V134.32H713.429L734.677 184.24V134.32H753.621V238H738.133L716.885 184.24V238H697.301Z" fill="black"/>
<path d="M331.922 238V76H401.922V100.2H367.722V141H397.522V166H367.722V238H331.922Z" fill="#001D4A"/>
<path d="M133.64 120.36C131.347 120.36 129.56 119.88 128.28 118.92C127.027 117.96 126.147 116.667 125.64 115.04C125.16 113.413 124.92 111.6 124.92 109.6V98.16C124.92 95.9733 125.16 94.0667 125.64 92.44C126.147 90.8133 127.027 89.56 128.28 88.68C129.56 87.7733 131.347 87.32 133.64 87.32C135.667 87.32 137.267 87.6933 138.44 88.44C139.64 89.1867 140.493 90.2533 141 91.64C141.533 93.0267 141.8 94.6933 141.8 96.64V99.2H137.52V96.92C137.52 95.72 137.453 94.6667 137.32 93.76C137.213 92.8267 136.893 92.1067 136.36 91.6C135.827 91.0933 134.933 90.84 133.68 90.84C132.4 90.84 131.467 91.12 130.88 91.68C130.293 92.2133 129.907 92.9867 129.72 94C129.56 94.9867 129.48 96.1467 129.48 97.48V110.32C129.48 111.947 129.613 113.24 129.88 114.2C130.147 115.133 130.587 115.8 131.2 116.2C131.813 116.6 132.64 116.8 133.68 116.8C134.907 116.8 135.787 116.533 136.32 116C136.853 115.44 137.187 114.68 137.32 113.72C137.453 112.76 137.52 111.64 137.52 110.36V107.96H141.8V110.36C141.8 112.333 141.56 114.08 141.08 115.6C140.6 117.093 139.773 118.267 138.6 119.12C137.427 119.947 135.773 120.36 133.64 120.36ZM153.706 120.32C151.999 120.32 150.653 119.973 149.666 119.28C148.679 118.587 147.973 117.6 147.546 116.32C147.146 115.04 146.946 113.533 146.946 111.8V105.08C146.946 103.347 147.146 101.84 147.546 100.56C147.973 99.28 148.679 98.2933 149.666 97.6C150.653 96.9067 151.999 96.56 153.706 96.56C155.413 96.56 156.746 96.9067 157.706 97.6C158.693 98.2933 159.386 99.28 159.786 100.56C160.213 101.84 160.426 103.347 160.426 105.08V111.8C160.426 113.533 160.213 115.04 159.786 116.32C159.386 117.6 158.693 118.587 157.706 119.28C156.746 119.973 155.413 120.32 153.706 120.32ZM153.706 117.16C154.533 117.16 155.106 116.92 155.426 116.44C155.773 115.96 155.973 115.333 156.026 114.56C156.106 113.76 156.146 112.933 156.146 112.08V104.84C156.146 103.96 156.106 103.133 156.026 102.36C155.973 101.587 155.773 100.96 155.426 100.48C155.106 99.9733 154.533 99.72 153.706 99.72C152.879 99.72 152.293 99.9733 151.946 100.48C151.599 100.96 151.386 101.587 151.306 102.36C151.253 103.133 151.226 103.96 151.226 104.84V112.08C151.226 112.933 151.253 113.76 151.306 114.56C151.386 115.333 151.599 115.96 151.946 116.44C152.293 116.92 152.879 117.16 153.706 117.16ZM165.938 120V96.88H169.898V99.08C170.671 98.2 171.525 97.5467 172.458 97.12C173.391 96.6933 174.351 96.48 175.338 96.48C176.191 96.48 176.951 96.6933 177.618 97.12C178.311 97.5467 178.805 98.3067 179.098 99.4C179.925 98.3867 180.818 97.6533 181.778 97.2C182.765 96.72 183.791 96.48 184.858 96.48C185.605 96.48 186.285 96.6667 186.898 97.04C187.511 97.3867 188.005 97.96 188.378 98.76C188.751 99.5333 188.938 100.56 188.938 101.84V120H185.018V102.12C185.018 101 184.831 100.253 184.458 99.88C184.111 99.48 183.631 99.28 183.018 99.28C182.431 99.28 181.818 99.4533 181.178 99.8C180.538 100.12 179.951 100.573 179.418 101.16C179.418 101.267 179.418 101.373 179.418 101.48C179.418 101.587 179.418 101.707 179.418 101.84V120H175.498V102.12C175.498 101 175.311 100.253 174.938 99.88C174.591 99.48 174.111 99.28 173.498 99.28C172.911 99.28 172.298 99.4533 171.658 99.8C171.045 100.12 170.458 100.573 169.898 101.16V120H165.938ZM194.726 127.6V96.88H199.006V98.72C199.512 98.1333 200.126 97.6267 200.846 97.2C201.566 96.7733 202.419 96.56 203.406 96.56C204.606 96.56 205.552 96.88 206.246 97.52C206.966 98.1333 207.499 98.92 207.846 99.88C208.192 100.813 208.419 101.773 208.526 102.76C208.632 103.72 208.686 104.547 208.686 105.24V110.84C208.686 112.467 208.526 114.013 208.206 115.48C207.886 116.92 207.299 118.093 206.446 119C205.619 119.88 204.446 120.32 202.926 120.32C202.099 120.32 201.366 120.12 200.726 119.72C200.086 119.293 199.512 118.813 199.006 118.28V127.6H194.726ZM202.086 116.96C202.832 116.96 203.366 116.693 203.686 116.16C204.006 115.6 204.206 114.853 204.286 113.92C204.366 112.987 204.406 111.96 204.406 110.84V105.24C204.406 104.28 204.352 103.4 204.246 102.6C204.139 101.773 203.912 101.12 203.566 100.64C203.219 100.16 202.672 99.92 201.926 99.92C201.366 99.92 200.832 100.04 200.326 100.28C199.819 100.52 199.379 100.8 199.006 101.12V115.92C199.406 116.213 199.859 116.467 200.366 116.68C200.872 116.867 201.446 116.96 202.086 116.96ZM217.497 120.32C216.591 120.32 215.884 120.08 215.377 119.6C214.871 119.12 214.511 118.52 214.297 117.8C214.111 117.08 214.017 116.347 214.017 115.6V96.88H218.297V114.32C218.297 115.147 218.417 115.8 218.657 116.28C218.897 116.733 219.391 116.96 220.137 116.96C220.617 116.96 221.111 116.827 221.617 116.56C222.151 116.267 222.657 115.92 223.137 115.52V96.88H227.417V120H223.137V117.72C222.391 118.44 221.537 119.053 220.577 119.56C219.644 120.067 218.617 120.32 217.497 120.32ZM239.554 120.32C238.354 120.32 237.381 120.093 236.634 119.64C235.914 119.187 235.381 118.547 235.034 117.72C234.714 116.893 234.554 115.92 234.554 114.8V99.72H232.114V96.88H234.554V90.12H238.834V96.88H242.554V99.72H238.834V114.52C238.834 115.427 238.981 116.08 239.274 116.48C239.568 116.853 240.128 117.04 240.954 117.04C241.168 117.04 241.408 117.027 241.674 117C241.968 116.973 242.248 116.947 242.514 116.92V120.08C241.981 120.16 241.488 120.213 241.034 120.24C240.581 120.293 240.088 120.32 239.554 120.32ZM253.699 120.32C251.886 120.32 250.486 119.973 249.499 119.28C248.512 118.56 247.819 117.52 247.419 116.16C247.046 114.773 246.859 113.08 246.859 111.08V105.8C246.859 103.747 247.059 102.04 247.459 100.68C247.859 99.32 248.552 98.2933 249.539 97.6C250.552 96.9067 251.939 96.56 253.699 96.56C255.646 96.56 257.072 96.96 257.979 97.76C258.912 98.56 259.526 99.72 259.819 101.24C260.112 102.733 260.259 104.533 260.259 106.64V108.52H251.139V113.16C251.139 114.093 251.219 114.853 251.379 115.44C251.566 116.027 251.846 116.467 252.219 116.76C252.619 117.027 253.126 117.16 253.739 117.16C254.379 117.16 254.859 117.013 255.179 116.72C255.526 116.4 255.752 115.96 255.859 115.4C255.992 114.813 256.059 114.133 256.059 113.36V111.96H260.219V112.84C260.219 115.16 259.726 116.987 258.739 118.32C257.752 119.653 256.072 120.32 253.699 120.32ZM251.139 106.2H256.059V104.12C256.059 103.16 256.006 102.36 255.899 101.72C255.792 101.053 255.566 100.56 255.219 100.24C254.899 99.8933 254.379 99.72 253.659 99.72C252.966 99.72 252.432 99.88 252.059 100.2C251.712 100.52 251.472 101.067 251.339 101.84C251.206 102.587 251.139 103.627 251.139 104.96V106.2ZM265.855 120V96.88H270.135V100.16C270.988 98.7467 271.842 97.8 272.695 97.32C273.548 96.84 274.402 96.6 275.255 96.6C275.362 96.6 275.455 96.6 275.535 96.6C275.642 96.6 275.775 96.6133 275.935 96.64V101.36C275.615 101.227 275.242 101.12 274.815 101.04C274.415 100.933 274.002 100.88 273.575 100.88C272.908 100.88 272.295 101.04 271.735 101.36C271.202 101.653 270.668 102.24 270.135 103.12V120H265.855Z" fill="black"/>
<path d="M443.08 120V90.96H437.6V87.6H452.92V90.96H447.6V120H443.08ZM457.403 120V96.88H461.683V100.16C462.537 98.7467 463.39 97.8 464.243 97.32C465.097 96.84 465.95 96.6 466.803 96.6C466.91 96.6 467.003 96.6 467.083 96.6C467.19 96.6 467.323 96.6133 467.483 96.64V101.36C467.163 101.227 466.79 101.12 466.363 101.04C465.963 100.933 465.55 100.88 465.123 100.88C464.457 100.88 463.843 101.04 463.283 101.36C462.75 101.653 462.217 102.24 461.683 103.12V120H457.403ZM475.895 120.32C474.988 120.32 474.188 120.067 473.495 119.56C472.802 119.027 472.255 118.36 471.855 117.56C471.455 116.733 471.255 115.867 471.255 114.96C471.255 113.52 471.495 112.307 471.975 111.32C472.455 110.333 473.108 109.507 473.935 108.84C474.788 108.147 475.762 107.547 476.855 107.04C477.975 106.533 479.148 106.04 480.375 105.56V103.92C480.375 102.987 480.322 102.213 480.215 101.6C480.108 100.987 479.882 100.533 479.535 100.24C479.215 99.92 478.722 99.76 478.055 99.76C477.468 99.76 476.988 99.8933 476.615 100.16C476.268 100.427 476.015 100.813 475.855 101.32C475.695 101.8 475.615 102.373 475.615 103.04V104.2L471.375 104.04C471.428 101.48 472.015 99.6 473.135 98.4C474.255 97.1733 475.988 96.56 478.335 96.56C480.628 96.56 482.255 97.1867 483.215 98.44C484.175 99.6933 484.655 101.507 484.655 103.88V114.44C484.655 115.16 484.668 115.853 484.695 116.52C484.748 117.187 484.802 117.813 484.855 118.4C484.935 118.96 485.002 119.493 485.055 120H481.135C481.055 119.573 480.948 119.04 480.815 118.4C480.708 117.733 480.628 117.133 480.575 116.6C480.308 117.507 479.788 118.36 479.015 119.16C478.268 119.933 477.228 120.32 475.895 120.32ZM477.575 116.64C478.002 116.64 478.402 116.52 478.775 116.28C479.148 116.04 479.482 115.773 479.775 115.48C480.068 115.16 480.268 114.907 480.375 114.72V108.16C479.708 108.533 479.082 108.907 478.495 109.28C477.908 109.653 477.388 110.053 476.935 110.48C476.508 110.88 476.162 111.347 475.895 111.88C475.655 112.387 475.535 112.973 475.535 113.64C475.535 114.573 475.708 115.307 476.055 115.84C476.402 116.373 476.908 116.64 477.575 116.64ZM490.646 120V96.88H494.926V120H490.646ZM490.646 93.44V88.96H494.926V93.44H490.646ZM501.107 120V96.88H505.387V99.16C506.16 98.44 507.014 97.8267 507.947 97.32C508.88 96.8133 509.907 96.56 511.027 96.56C511.96 96.56 512.667 96.8 513.147 97.28C513.654 97.76 514 98.36 514.187 99.08C514.4 99.8 514.507 100.533 514.507 101.28V120H510.227V102.52C510.227 101.693 510.107 101.053 509.867 100.6C509.627 100.147 509.134 99.92 508.387 99.92C507.907 99.92 507.4 100.067 506.867 100.36C506.36 100.627 505.867 100.96 505.387 101.36V120H501.107ZM520.565 120V96.88H524.845V120H520.565ZM520.565 93.44V88.96H524.845V93.44H520.565ZM531.026 120V96.88H535.306V99.16C536.079 98.44 536.932 97.8267 537.866 97.32C538.799 96.8133 539.826 96.56 540.946 96.56C541.879 96.56 542.586 96.8 543.066 97.28C543.572 97.76 543.919 98.36 544.106 99.08C544.319 99.8 544.426 100.533 544.426 101.28V120H540.146V102.52C540.146 101.693 540.026 101.053 539.786 100.6C539.546 100.147 539.052 99.92 538.306 99.92C537.826 99.92 537.319 100.067 536.786 100.36C536.279 100.627 535.786 100.96 535.306 101.36V120H531.026ZM556.204 127.16C554.817 127.16 553.564 127.013 552.444 126.72C551.324 126.427 550.444 125.96 549.804 125.32C549.164 124.68 548.844 123.84 548.844 122.8C548.844 122.053 549.004 121.4 549.324 120.84C549.644 120.28 550.057 119.8 550.564 119.4C551.07 118.973 551.604 118.627 552.164 118.36C551.417 118.147 550.857 117.813 550.484 117.36C550.11 116.88 549.924 116.387 549.924 115.88C549.924 115.027 550.15 114.293 550.604 113.68C551.057 113.067 551.684 112.4 552.484 111.68C551.604 111.013 550.937 110.16 550.484 109.12C550.03 108.08 549.804 106.64 549.804 104.8C549.804 102.987 550.044 101.48 550.524 100.28C551.03 99.0533 551.764 98.1333 552.724 97.52C553.71 96.88 554.91 96.56 556.324 96.56C557.577 96.56 558.577 96.7733 559.324 97.2C560.097 97.6267 560.684 98.2667 561.084 99.12C561.217 98.9067 561.577 98.5467 562.164 98.04C562.75 97.5067 563.43 97.0667 564.204 96.72L564.844 96.44L565.924 99.2C565.577 99.2533 565.11 99.3867 564.524 99.6C563.964 99.7867 563.43 99.9867 562.924 100.2C562.444 100.387 562.137 100.547 562.004 100.68C562.19 101.133 562.35 101.787 562.484 102.64C562.644 103.493 562.724 104.253 562.724 104.92C562.724 106.493 562.524 107.88 562.124 109.08C561.724 110.28 561.057 111.227 560.124 111.92C559.217 112.587 557.95 112.92 556.324 112.92C555.977 112.92 555.604 112.893 555.204 112.84C554.804 112.787 554.444 112.72 554.124 112.64C553.964 112.88 553.79 113.16 553.604 113.48C553.444 113.8 553.364 114.107 553.364 114.4C553.364 114.693 553.51 114.933 553.804 115.12C554.124 115.28 554.617 115.387 555.284 115.44L558.884 115.76C560.697 115.92 562.044 116.467 562.924 117.4C563.804 118.333 564.244 119.667 564.244 121.4C564.244 122.653 563.95 123.707 563.364 124.56C562.777 125.44 561.884 126.093 560.684 126.52C559.51 126.947 558.017 127.16 556.204 127.16ZM556.524 123.8C558.044 123.8 559.164 123.613 559.884 123.24C560.604 122.893 560.964 122.32 560.964 121.52C560.964 121.04 560.87 120.64 560.684 120.32C560.524 120 560.217 119.747 559.764 119.56C559.31 119.373 558.657 119.24 557.804 119.16L554.164 118.84C553.87 119.133 553.59 119.427 553.324 119.72C553.057 120.013 552.844 120.32 552.684 120.64C552.524 120.987 552.444 121.347 552.444 121.72C552.444 122.413 552.737 122.933 553.324 123.28C553.91 123.627 554.977 123.8 556.524 123.8ZM556.324 109.92C556.937 109.92 557.417 109.813 557.764 109.6C558.137 109.36 558.417 109.027 558.604 108.6C558.79 108.147 558.91 107.6 558.964 106.96C559.044 106.32 559.084 105.6 559.084 104.8C559.084 104 559.044 103.28 558.964 102.64C558.91 101.973 558.79 101.413 558.604 100.96C558.444 100.48 558.177 100.12 557.804 99.88C557.457 99.64 556.977 99.52 556.364 99.52C555.777 99.52 555.284 99.64 554.884 99.88C554.51 100.12 554.23 100.467 554.044 100.92C553.857 101.347 553.724 101.893 553.644 102.56C553.564 103.2 553.524 103.947 553.524 104.8C553.524 105.52 553.55 106.2 553.604 106.84C553.684 107.453 553.817 107.987 554.004 108.44C554.217 108.893 554.51 109.253 554.884 109.52C555.257 109.787 555.737 109.92 556.324 109.92ZM580.527 120V87.6H584.967V120H580.527ZM591.449 120V96.88H595.729V99.16C596.502 98.44 597.356 97.8267 598.289 97.32C599.222 96.8133 600.249 96.56 601.369 96.56C602.302 96.56 603.009 96.8 603.489 97.28C603.996 97.76 604.342 98.36 604.529 99.08C604.742 99.8 604.849 100.533 604.849 101.28V120H600.569V102.52C600.569 101.693 600.449 101.053 600.209 100.6C599.969 100.147 599.476 99.92 598.729 99.92C598.249 99.92 597.742 100.067 597.209 100.36C596.702 100.627 596.209 100.96 595.729 101.36V120H591.449ZM615.987 120.32C614.094 120.32 612.574 119.733 611.427 118.56C610.281 117.36 609.627 115.787 609.467 113.84L613.027 112.76C613.241 114.227 613.601 115.333 614.107 116.08C614.614 116.8 615.361 117.16 616.347 117.16C617.121 117.16 617.707 116.947 618.107 116.52C618.507 116.067 618.707 115.467 618.707 114.72C618.707 114.053 618.561 113.453 618.267 112.92C617.974 112.387 617.494 111.84 616.827 111.28L612.867 107.88C612.067 107.187 611.387 106.413 610.827 105.56C610.294 104.707 610.027 103.6 610.027 102.24C610.027 101.013 610.267 99.9867 610.747 99.16C611.254 98.3067 611.947 97.6667 612.827 97.24C613.734 96.7867 614.787 96.56 615.987 96.56C617.827 96.56 619.227 97.16 620.187 98.36C621.174 99.5333 621.734 100.96 621.867 102.64L618.987 103.72C618.881 102.92 618.721 102.227 618.507 101.64C618.294 101.027 618.001 100.56 617.627 100.24C617.254 99.8933 616.761 99.72 616.147 99.72C615.454 99.72 614.894 99.96 614.467 100.44C614.067 100.893 613.867 101.44 613.867 102.08C613.867 102.48 613.947 102.88 614.107 103.28C614.294 103.653 614.601 104.027 615.027 104.4L619.107 108.16C619.667 108.667 620.187 109.213 620.667 109.8C621.174 110.387 621.587 111.053 621.907 111.8C622.227 112.547 622.387 113.413 622.387 114.4C622.387 115.707 622.121 116.8 621.587 117.68C621.054 118.56 620.307 119.227 619.347 119.68C618.387 120.107 617.267 120.32 615.987 120.32ZM633.348 120.32C632.148 120.32 631.175 120.093 630.428 119.64C629.708 119.187 629.175 118.547 628.828 117.72C628.508 116.893 628.348 115.92 628.348 114.8V99.72H625.908V96.88H628.348V90.12H632.628V96.88H636.348V99.72H632.628V114.52C632.628 115.427 632.775 116.08 633.068 116.48C633.361 116.853 633.921 117.04 634.748 117.04C634.961 117.04 635.201 117.027 635.468 117C635.761 116.973 636.041 116.947 636.308 116.92V120.08C635.775 120.16 635.281 120.213 634.828 120.24C634.375 120.293 633.881 120.32 633.348 120.32ZM641.373 120V96.88H645.653V120H641.373ZM641.373 93.44V88.96H645.653V93.44H641.373ZM657.993 120.32C656.793 120.32 655.82 120.093 655.073 119.64C654.353 119.187 653.82 118.547 653.473 117.72C653.153 116.893 652.993 115.92 652.993 114.8V99.72H650.553V96.88H652.993V90.12H657.273V96.88H660.993V99.72H657.273V114.52C657.273 115.427 657.42 116.08 657.713 116.48C658.007 116.853 658.567 117.04 659.393 117.04C659.607 117.04 659.847 117.027 660.113 117C660.407 116.973 660.687 116.947 660.953 116.92V120.08C660.42 120.16 659.927 120.213 659.473 120.24C659.02 120.293 658.527 120.32 657.993 120.32ZM669.058 120.32C668.151 120.32 667.445 120.08 666.938 119.6C666.431 119.12 666.071 118.52 665.858 117.8C665.671 117.08 665.578 116.347 665.578 115.6V96.88H669.858V114.32C669.858 115.147 669.978 115.8 670.218 116.28C670.458 116.733 670.951 116.96 671.698 116.96C672.178 116.96 672.671 116.827 673.178 116.56C673.711 116.267 674.218 115.92 674.698 115.52V96.88H678.978V120H674.698V117.72C673.951 118.44 673.098 119.053 672.138 119.56C671.205 120.067 670.178 120.32 669.058 120.32ZM691.115 120.32C689.915 120.32 688.942 120.093 688.195 119.64C687.475 119.187 686.942 118.547 686.595 117.72C686.275 116.893 686.115 115.92 686.115 114.8V99.72H683.675V96.88H686.115V90.12H690.395V96.88H694.115V99.72H690.395V114.52C690.395 115.427 690.542 116.08 690.835 116.48C691.129 116.853 691.689 117.04 692.515 117.04C692.729 117.04 692.969 117.027 693.235 117C693.529 116.973 693.809 116.947 694.075 116.92V120.08C693.542 120.16 693.049 120.213 692.595 120.24C692.142 120.293 691.649 120.32 691.115 120.32ZM705.26 120.32C703.447 120.32 702.047 119.973 701.06 119.28C700.073 118.56 699.38 117.52 698.98 116.16C698.607 114.773 698.42 113.08 698.42 111.08V105.8C698.42 103.747 698.62 102.04 699.02 100.68C699.42 99.32 700.113 98.2933 701.1 97.6C702.113 96.9067 703.5 96.56 705.26 96.56C707.207 96.56 708.633 96.96 709.54 97.76C710.473 98.56 711.087 99.72 711.38 101.24C711.673 102.733 711.82 104.533 711.82 106.64V108.52H702.7V113.16C702.7 114.093 702.78 114.853 702.94 115.44C703.127 116.027 703.407 116.467 703.78 116.76C704.18 117.027 704.687 117.16 705.3 117.16C705.94 117.16 706.42 117.013 706.74 116.72C707.087 116.4 707.313 115.96 707.42 115.4C707.553 114.813 707.62 114.133 707.62 113.36V111.96H711.78V112.84C711.78 115.16 711.287 116.987 710.3 118.32C709.313 119.653 707.633 120.32 705.26 120.32ZM702.7 106.2H707.62V104.12C707.62 103.16 707.567 102.36 707.46 101.72C707.353 101.053 707.127 100.56 706.78 100.24C706.46 99.8933 705.94 99.72 705.22 99.72C704.527 99.72 703.993 99.88 703.62 100.2C703.273 100.52 703.033 101.067 702.9 101.84C702.767 102.587 702.7 103.627 702.7 104.96V106.2Z" fill="black"/>
</svg>
